<svg xmlns="http://www.w3.org/2000/svg" x="0px" y="0px" viewBox="0 0 100 100" version="1.1">
 <path d="m43.426 37.855c1.3711 0 2.4805 1.1094 2.4805 2.4805 0 1.3711-1.1094 2.4805-2.4805 2.4805-1.3711 0-2.4805-1.1094-2.4805-2.4805 0-1.3711 1.1094-2.4805 2.4805-2.4805zm0-3.9805c-3.5664 0-6.4609 2.8906-6.4609 6.4609 0 3.5664 2.8945 6.4609 6.4609 6.4609 3.5703 0 6.4609-2.8945 6.4609-6.4609 0-3.5703-2.8945-6.4609-6.4609-6.4609zm13.148 23.309c1.3711 0 2.4805 1.1133 2.4805 2.4805 0 1.3711-1.1094 2.4805-2.4805 2.4805-1.3711 0-2.4805-1.1094-2.4805-2.4805 0-1.3711 1.1094-2.4805 2.4805-2.4805zm4.7383-20.512c-0.51562 0-1.0312 0.19531-1.4258 0.58984l-22.625 22.625c-0.78906 0.78906-0.78906 2.0664 0 2.8516 0.39453 0.39453 0.91016 0.58984 1.4258 0.58984s1.0312-0.19531 1.4258-0.58984l22.625-22.625c0.78906-0.78906 0.78906-2.0664 0-2.8516-0.39453-0.39453-0.91016-0.58984-1.4258-0.58984zm-4.7383 16.531c-3.5664 0-6.4609 2.8945-6.4609 6.4609 0 3.5703 2.8906 6.4609 6.4609 6.4609 3.5664 0 6.4609-2.8906 6.4609-6.4609 0-3.5664-2.8945-6.4609-6.4609-6.4609zm-6.5156-39.227h0.003906c1.6328 0.015626 3.2148 0.63672 4.4492 1.8711l2.4336 2.4336c2.8008 2.8008 6.5977 4.3711 10.555 4.375l3.5273-0.003906c3.4922 0.046875 6.3086 2.8945 6.3086 6.4023v3.4375c0 3.957 1.5703 7.7539 4.3711 10.555l2.5469 2.5469c2.3828 2.5039 2.3477 6.4727-0.11719 8.9336-0.007813 0.011718-2.4297 2.4297-2.4297 2.4297-2.8008 2.8008-4.3711 6.5938-4.3711 10.555l-0.011719 3.8516c-0.21094 3.3125-2.9492 5.9414-6.3086 5.9844h-3.5234c-3.9531 0-7.75 1.5742-10.547 4.3711l-2.0078 2.0039c-0.23828 0.22266-0.71094 0.69922-0.71094 0.69922-1.207 1.0703-2.6992 1.6016-4.2383 1.6016-1.6172 0-3.1914-0.58984-4.4297-1.7773l-2.5234-2.5234c-2.7734-2.7734-6.5312-4.3438-10.449-4.3711l-3.582-0.003906c-3.3984-0.015625-6.1758-2.6953-6.3555-6.0508l-0.007813-3.7812c0-3.9414-1.5586-7.7188-4.332-10.516l-2.5156-2.5195c-2.3789-2.4258-2.4375-6.2812-0.17578-8.7734l2.6797-2.6875c2.7812-2.8008 4.3438-6.5859 4.3438-10.531v-3.4375c0-3.5352 2.8594-6.3945 6.3906-6.3945l3.5508-0.003906c3.9141-0.027344 7.6562-1.5859 10.43-4.3477l2.4531-2.4531c1.2539-1.2578 2.8672-1.875 4.5195-1.875h0.003906 0.070313zm-0.070313-4.0312v0.003907h-0.007812-0.007813c-2.6797 0-5.3203 1.0156-7.3594 3.0508-0.007812 0.011719-2.4258 2.4297-2.4258 2.4297-2.0469 2.043-4.8164 3.1914-7.707 3.1914-3.4492 0.003906-3.4492 0.003906-3.4492 0.003906-5.7539 0-10.422 4.668-10.422 10.426v3.4375c0 2.8906-1.1484 5.6641-3.1914 7.707l-2.6562 2.668c-3.8242 4.0625-3.7695 10.453 0.16797 14.449 0.046874 0.050781 2.4883 2.4961 2.4883 2.4961 2.043 2.043 3.1914 4.8164 3.1914 7.707l0.007813 3.7852c0.18359 5.5781 4.75 10.047 10.367 10.078 0.17188 0 3.5039 0.003906 3.5039 0.003906h0.003907c2.8867 0 5.6562 1.1484 7.6953 3.1914l2.5195 2.5156c2.0234 1.9805 4.6328 2.9648 7.2812 2.9648 2.5508 0 5.0703-0.91797 7.0625-2.7539l0.66406-0.65234 2.0781-2.0781c2.0469-2.043 4.8164-3.1914 7.707-3.1953l3.4531 0.003906c5.6016-0.011718 10.168-4.4336 10.402-9.9805l0.011719-3.8867c0-2.8906 1.1445-5.6641 3.1914-7.707l2.4336-2.4336c4.0391-4.043 4.0703-10.57 0.09375-14.648l-2.5273-2.5234c-2.0469-2.0469-3.1953-4.8164-3.1953-7.707l0.003907-3.4336c0-5.7578-4.6562-10.422-10.402-10.438-0.21094 0.003906-0.30859 0.003906-0.30859 0.003906h-3.1523c-2.8906 0-5.6484-1.1367-7.6953-3.1797-2.4102-2.4102-2.4453-2.4453-2.4453-2.4453-2.0391-2.0391-4.6914-3.0547-7.375-3.0547z"/></svg>