<svg xmlns="http://www.w3.org/2000/svg" version="1.1" x="0px" y="0px" viewBox="0 0 98 98">
 <path d="m32.133 10c-4.6992 0.085938-9.6328 3.875-9.6328 10 0 2.8477 1.6094 5.168 3.5273 6.9531 1.2578 1.168 2.7031 2.168 4.1992 3.0508l-12.727-0.003906c-1.3242 0-2.5977 0.52734-3.5352 1.4648s-1.4648 2.2109-1.4648 3.5352v10c0 2.7617 2.2383 5 5 5v35c0 2.7617 2.2383 5 5 5h55c2.7617 0 5-2.2383 5-5v-35c2.7617 0 5-2.2383 5-5v-10c0-2.7617-2.2383-5-5-5h-11.484c1.4961-0.87891 2.9414-1.8828 4.1992-3.0508 1.9219-1.7852 3.5352-4.1055 3.5352-6.9531 0-6.3203-5.2539-10.156-10.082-9.9961-5.0938 0.17188-9.1289 2.5859-12.086 6.3906-2.2891 2.9492-4.1172 6.6797-5.9961 11.137-1.9336-4.4297-4.043-8.7266-5.918-11.137-2.9531-3.8047-6.9883-6.2188-12.082-6.3867-0.15234-0.003906-0.30078-0.003906-0.45313-0.003906zm0.28516 5c3.7617 0.125 5.9727 1.4609 8.3047 4.4609 1.7578 2.2617 3.4844 6.4023 5.2539 10.539h-3.0352c-0.23438-0.066406-4.0742-1.1719-8.0742-3.1719-2.0586-1.0312-4.0742-2.2812-5.4336-3.543-1.3594-1.2617-1.9336-2.3828-1.9336-3.2852 0-3.6797 2.6758-5.0742 4.918-5zm36.414 0c2.2383-0.074219 4.918 1.3203 4.918 5 0 0.90234-0.57422 2.0234-1.9336 3.2852-1.3594 1.2617-3.375 2.5117-5.4336 3.543-4 2-7.8398 3.1055-8.0742 3.1719h-3.0273c1.7734-4.1367 3.4922-8.2773 5.25-10.539 2.332-3 4.543-4.332 8.3047-4.4609zm-48.832 20h22.5v10h-22.5c-0.66406 0-1.3008-0.26172-1.7695-0.73047s-0.73047-1.1055-0.73047-1.7695v-5c0-0.66016 0.26172-1.2969 0.73047-1.7656s1.1055-0.73438 1.7695-0.73438zm37.5 0h22.5c1.3789 0 2.5 1.1211 2.5 2.5v5c0 0.66406-0.26172 1.3008-0.73047 1.7695s-1.1055 0.73047-1.7695 0.73047h-22.5zm-35 15h20v35h-17.5c-0.66406 0-1.3008-0.26172-1.7695-0.73047s-0.73047-1.1055-0.73047-1.7695zm35 0h20v32.5c0 1.3828-1.1211 2.5-2.5 2.5h-17.5z"/>
</svg>