<svg xmlns="http://www.w3.org/2000/svg" x="0px" y="0px" viewBox="0 0 70 68" ><title>1</title><path d="M55.75342,16.16309H50.66956c.92468-1.64505.29884-6.18052-.54324-8.70313C47.3675-.65539,36.49478,8.1688,34.61122,9.83935c-.81316-.65255-2.8209-.343-3.78558-.41217A2.75343,2.75343,0,0,0,29.39,9.83862C27.52306,8.18007,16.63567-.65286,13.878,7.45029c-.84221,2.524-1.47417,7.0653-.54545,8.71278l-5.086,0a3.00328,3.00328,0,0,0-3,3V29.73682a1.00006,1.00006,0,0,0,1,1h1.96V57a3.00328,3.00328,0,0,0,3,3c5.32709.00036,41.58692,0,41.58692,0a3.00328,3.00328,0,0,0,3-3V30.73682h1.96a1.00006,1.00006,0,0,0,1-1V19.16309A3.00328,3.00328,0,0,0,55.75342,16.16309Zm-18.5083,0c2.57723-2.37008,8.79845-3.74626,11.812-4.17338.20492,1.7078.17746,3.82554-1.10806,4.17338Zm-1,12.57373c-.07411-.00784-8.4172.00565-8.49026,0l0-10.57371s7.68.00149,8.49024,0ZM44.80127,6.11328c2.6778-.66971,3.5694,1.75513,3.90727,3.90985-2.58446.3761-9.08323,1.58167-12.752,4.54987a16.64032,16.64032,0,0,0-.12443-3.14133A26.528,26.528,0,0,1,44.80127,6.11328Zm-13.97559,5.314h2.34864a.78343.78343,0,0,1,.78222.78271v3.95313H30.04346V12.21A.78343.78343,0,0,1,30.82568,11.42725ZM15.79883,8.00586a2.75844,2.75844,0,0,1,3.40236-1.89255,26.5353,26.5353,0,0,1,8.96721,5.317,18.03032,18.03032,0,0,0-.12491,3.141c-3.66928-2.9669-10.16617-4.1721-12.75022-4.5482C15.4364,9.36005,15.59906,8.68414,15.79883,8.00586Zm-.854,3.9834c3.12879.44317,8.918,1.72949,11.8855,4.17383H16.05243C14.76691,15.81525,14.73993,13.697,14.94482,11.98926ZM7.24658,19.16309a1.0013,1.0013,0,0,1,1-1h17.5083V28.73682c-1.19941-.00231-17.78992.00166-18.50844,0ZM10.20654,57V30.73682h16.8833V58H11.20654A1.0013,1.0013,0,0,1,10.20654,57Zm18.8833,1V30.73682h5.82032V58Zm24.70362-1a1.0013,1.0013,0,0,1-1,1H36.91016V30.73682h16.8833Zm2.96-28.26318c-.63734.0038-17.39-.00274-18.50816,0l-.00014-10.57373h17.5083a1.0013,1.0013,0,0,1,1,1Z"/></svg>